<svg width="95" height="87" viewBox="0 0 95 87" fill="none" xmlns="http://www.w3.org/2000/svg">
<rect width="95" height="87" fill="#1E1E1E"/>
<g id="TRANG CH&#225;&#187;&#166;" clip-path="url(#clip0_0_1)">
<rect width="1599" height="11561" transform="translate(-871 -5527.5)" fill="white"/>
<g id="Frame 1410138400" clip-path="url(#clip1_0_1)">
<rect width="1600" height="6397" transform="translate(-872 -363.5)" fill="white"/>
<g id="Frame 1410138602">
<g clip-path="url(#clip2_0_1)">
<path d="M-872 -339.5C-872 -352.755 -861.255 -363.5 -848 -363.5H704C717.255 -363.5 728 -352.755 728 -339.5V907.5H-872V-339.5Z" fill="white"/>
<g id="Frame 1410138627">
<g id="Rectangle 34625620">
<mask id="path-2-inside-1_0_1" fill="white">
<path d="M-84 -68.5H728V175.5H-84V-68.5Z"/>
</mask>
<path d="M-84 175.5H-85V176.5H-84V175.5ZM728 174.5H-84V176.5H728V174.5ZM-83 175.5V-68.5H-85V175.5H-83Z" fill="#EDEDED" mask="url(#path-2-inside-1_0_1)"/>
</g>
<g id="Frame 1410138608">
<circle id="Ellipse 2364" cx="52" cy="53.5" r="85" fill="#FBFBFB"/>
</g>
</g>
<g id="Search results for Bank - Flaticon-12 (1) 2">
<circle id="Ellipse 2385" cx="19" cy="19.5" r="19" fill="#ED1B2F"/>
<path id="Vector 2288" d="M41 37.5C50.0386 45.592 51.6433 70.205 51.3158 81.5C51.3158 71.8908 54.8526 52.6724 69 52.6724" stroke="#2A2B6B" stroke-width="3.84" stroke-linecap="round" stroke-linejoin="round"/>
<path id="Vector 2289" d="M60.0374 55.6742C59.5284 48.9187 64.0082 37.3378 86 45.0584C85.3214 50.0447 80.8078 60.114 68.1829 60.5" stroke="#2A2B6B" stroke-width="3.84" stroke-linecap="round"/>
<path id="Vector 2290" d="M46.459 46.6533C40.6995 48.7787 26.9443 48.2228 18 28.9961C24.2678 25.5628 39.2426 21.639 49 33.4104" stroke="#2A2B6B" stroke-width="3.84" stroke-linecap="round"/>
</g>
<path id="Polygon 3" d="M19.816 89.2301C35.2903 69.8871 64.7097 69.8871 80.184 89.2301C80.9159 90.1449 80.2646 91.5 79.0931 91.5H20.9069C19.7354 91.5 19.0841 90.1449 19.816 89.2301Z" fill="#2A2B6B"/>
</g>
</g>
</g>
</g>
<defs>
<clipPath id="clip0_0_1">
<rect width="1599" height="11561" fill="white" transform="translate(-871 -5527.5)"/>
</clipPath>
<clipPath id="clip1_0_1">
<rect width="1600" height="6397" fill="white" transform="translate(-872 -363.5)"/>
</clipPath>
<clipPath id="clip2_0_1">
<path d="M-872 -339.5C-872 -352.755 -861.255 -363.5 -848 -363.5H704C717.255 -363.5 728 -352.755 728 -339.5V907.5H-872V-339.5Z" fill="white"/>
</clipPath>
</defs>
</svg>
