<svg width="221" height="118" viewBox="0 0 221 118" fill="none" xmlns="http://www.w3.org/2000/svg">
<g id="Logo" clip-path="url(#clip0_13689_1854)">
<path id="Vector" d="M124.882 79.5371H115.961V117.464H124.882V79.5371Z" fill="white"/>
<path id="Vector_2" d="M143.22 96.2166C142.55 96.2208 141.905 95.9589 141.427 95.4883C140.95 95.0177 140.678 94.3768 140.672 93.706V84.175C140.766 80.6254 146.045 80.6176 146.139 84.175V91.4708H150.773V86.4574C150.372 76.8319 136.439 76.8319 136.038 86.4574V95.3352C136.033 96.017 136.218 96.6868 136.57 97.2703C136.923 97.8538 137.43 98.3281 138.036 98.6407C137.405 98.9315 136.876 99.4066 136.519 100.004C136.163 100.601 135.995 101.292 136.038 101.986V110.761C136.439 120.394 150.379 120.394 150.773 110.761V100.805H153.92V96.2166H143.22ZM143.409 115.727C142.689 115.731 141.996 115.45 141.483 114.944C140.969 114.438 140.678 113.749 140.672 113.028V103.316C140.675 102.983 140.743 102.654 140.873 102.348C141.004 102.041 141.193 101.764 141.43 101.531C141.668 101.297 141.949 101.113 142.257 100.989C142.566 100.864 142.896 100.802 143.228 100.805H146.139V113.036C146.133 113.754 145.842 114.441 145.33 114.946C144.819 115.451 144.128 115.731 143.409 115.727Z" fill="white"/>
<path id="Vector_3" d="M9.30805 117.465C9.30805 100.669 8.21454 77.8373 16.2074 64.5206C17.1672 62.8206 18.5675 62.8521 19.5588 64.5679C26.2457 76.279 26.7649 95.4669 26.3952 117.465H35.6783V101.488C35.6783 79.4507 26.6391 67.9285 21.4075 63.0882C20.4659 62.2001 19.2234 61.7008 17.9293 61.6906C16.6352 61.6804 15.385 62.1599 14.4295 63.0331C-0.722387 77.1998 -0.0300845 98.7095 0.0171175 117.465H9.30805Z" fill="white"/>
<path id="Vector_4" d="M56.2058 117.469V91.2369C56.2058 86.8452 59.5493 83.2878 63.6795 83.2878C67.8097 83.2878 71.1296 86.8373 71.1296 91.2211V117.469H80.5149V91.2369C80.5149 86.8452 83.8584 83.2878 87.9807 83.2878C92.103 83.2878 95.4386 86.8373 95.4386 91.2211V117.469H104.816V97.1397C104.895 81.3202 86.3994 73.0248 75.8183 84.7674C65.245 73.0248 46.7497 81.3281 46.8362 97.1397V117.469H56.2058Z" fill="white"/>
<path id="Vector_5" d="M172.37 117.466V73.5887C172.37 71.6058 173.157 69.704 174.559 68.3018C175.96 66.8996 177.861 66.1119 179.843 66.1119C181.825 66.1119 183.726 66.8996 185.128 68.3018C186.529 69.704 187.317 71.6058 187.317 73.5887V117.482H196.702V73.5887C196.702 71.6058 197.49 69.704 198.891 68.3018C200.293 66.8996 202.194 66.1119 204.176 66.1119C206.158 66.1119 208.059 66.8996 209.461 68.3018C210.862 69.704 211.65 71.6058 211.65 73.5887V117.482H221.027V79.4443C221.106 63.7587 202.61 55.5341 192.037 67.1744C181.456 55.5262 162.968 63.7587 163.047 79.4443V117.466H172.37Z" fill="white"/>
<path id="Vector_6" d="M17.8435 92.93C19.69 92.93 21.187 91.4325 21.187 89.5851C21.187 87.7378 19.69 86.2402 17.8435 86.2402C15.9969 86.2402 14.5 87.7378 14.5 89.5851C14.5 91.4325 15.9969 92.93 17.8435 92.93Z" fill="#8DC63F"/>
<path id="Vector_7" d="M120.39 72.8506C123.471 72.8506 125.968 70.3523 125.968 67.2705C125.968 64.1887 123.471 61.6904 120.39 61.6904C117.31 61.6904 114.812 64.1887 114.812 67.2705C114.812 70.3523 117.31 72.8506 120.39 72.8506Z" fill="#5056A5"/>
<path id="Vector_8" d="M133.015 48.2673C136.708 48.2673 139.702 45.2722 139.702 41.5775C139.702 37.8828 136.708 34.8877 133.015 34.8877C129.322 34.8877 126.328 37.8828 126.328 41.5775C126.328 45.2722 129.322 48.2673 133.015 48.2673Z" fill="#996598"/>
<path id="Vector_9" d="M157.851 28.2789C162.161 28.2789 165.655 24.7834 165.655 20.4715C165.655 16.1596 162.161 12.6641 157.851 12.6641C153.541 12.6641 150.047 16.1596 150.047 20.4715C150.047 24.7834 153.541 28.2789 157.851 28.2789Z" fill="#D24D70"/>
<path id="Vector_10" d="M192.062 18.5297C196.989 18.5297 200.983 14.5338 200.983 9.60469C200.983 4.67555 196.989 0.679688 192.062 0.679688C187.135 0.679688 183.141 4.67555 183.141 9.60469C183.141 14.5338 187.135 18.5297 192.062 18.5297Z" fill="#ED1B2F"/>
<path id="Vector_11" d="M32.712 64.5744C34.6628 64.5744 36.2443 62.9923 36.2443 61.0406C36.2443 59.089 34.6628 57.5068 32.712 57.5068C30.7611 57.5068 29.1797 59.089 29.1797 61.0406C29.1797 62.9923 30.7611 64.5744 32.712 64.5744Z" fill="#35AA94"/>
<path id="Vector_12" d="M52.9333 50.9353C55.0883 50.9353 56.8353 49.1876 56.8353 47.0316C56.8353 44.8757 55.0883 43.1279 52.9333 43.1279C50.7783 43.1279 49.0312 44.8757 49.0312 47.0316C49.0312 49.1876 50.7783 50.9353 52.9333 50.9353Z" fill="#1EA0CA"/>
<path id="Vector_13" d="M77.3668 47.0954C79.8304 47.0954 81.8274 45.0975 81.8274 42.6329C81.8274 40.1683 79.8304 38.1704 77.3668 38.1704C74.9033 38.1704 72.9062 40.1683 72.9062 42.6329C72.9062 45.0975 74.9033 47.0954 77.3668 47.0954Z" fill="#0088CB"/>
<path id="Vector_14" d="M102.035 54.1461C104.807 54.1461 107.054 51.898 107.054 49.1248C107.054 46.3516 104.807 44.1035 102.035 44.1035C99.2628 44.1035 97.0156 46.3516 97.0156 49.1248C97.0156 51.898 99.2628 54.1461 102.035 54.1461Z" fill="#3777BC"/>
</g>
<defs>
<clipPath id="clip0_13689_1854">
<rect width="221" height="117.3" fill="white" transform="translate(0 0.675781)"/>
</clipPath>
</defs>
</svg>
