<svg width="1474" height="761" viewBox="0 0 1474 761" fill="none" xmlns="http://www.w3.org/2000/svg">
<mask id="mask0_13705_1845" style="mask-type:alpha" maskUnits="userSpaceOnUse" x="0" y="0" width="1489" height="800">
<rect x="0.875" y="0.666016" width="1488.01" height="799.334" fill="url(#paint0_linear_13705_1845)"/>
</mask>
<g mask="url(#mask0_13705_1845)">
<path d="M1200.77 37.3147C1196.82 37.7375 1193.01 38.5831 1189.33 39.4288C863.986 102.288 751.582 375.147 718.398 489.167C711.337 513.408 684.084 525.529 661.49 514.395C598.51 483.67 472.268 438.005 305.357 455.905C61.0634 482.12 -56 707.059 -56 707.059L-36.513 887.461C-36.513 887.461 47.366 626.723 318.914 597.69C515.055 576.69 645.674 706.918 703.006 780.911C726.306 810.931 763.303 826.576 801.006 822.629C846.052 817.837 878.954 778.515 876.695 733.274C852.83 267.892 1218.42 201.227 1218.42 201.227C1263.75 196.294 1296.65 155.704 1291.71 110.462C1286.77 65.2207 1246.1 32.3818 1200.77 37.3147Z" fill="url(#paint1_linear_13705_1845)"/>
</g>
<defs>
<linearGradient id="paint0_linear_13705_1845" x1="760.426" y1="669.772" x2="253.322" y2="673.529" gradientUnits="userSpaceOnUse">
<stop stop-color="#D9D9D9" stop-opacity="0"/>
<stop offset="0.207696" stop-color="#CFCFCF" stop-opacity="0.73"/>
<stop offset="1" stop-color="#737373"/>
</linearGradient>
<linearGradient id="paint1_linear_13705_1845" x1="6.50411" y1="898.269" x2="1097.8" y2="161.927" gradientUnits="userSpaceOnUse">
<stop offset="0.04" stop-color="#292664" stop-opacity="0"/>
<stop offset="0.24" stop-color="#6B8ED2" stop-opacity="0.24"/>
<stop offset="0.474252" stop-color="#0E77CF"/>
<stop offset="0.752038" stop-color="#E759AE"/>
<stop offset="0.99" stop-color="#F4475C"/>
</linearGradient>
</defs>
</svg>
