<svg width="40" height="40" viewBox="0 0 40 40" fill="none" xmlns="http://www.w3.org/2000/svg">
<circle cx="20" cy="20" r="20" fill="#2F2E79"/>
<path d="M17.204 15.172C17.4373 15.172 17.638 15.2513 17.806 15.41C17.9833 15.5593 18.072 15.7507 18.072 15.984C18.072 16.1053 18.044 16.2313 17.988 16.362L14.53 24.454C14.446 24.6407 14.3247 24.7807 14.166 24.874C14.0167 24.958 13.8627 25 13.704 25C13.5547 24.9907 13.41 24.944 13.27 24.86C13.13 24.7667 13.0227 24.636 12.948 24.468L9.49 16.348C9.462 16.292 9.44333 16.236 9.434 16.18C9.42467 16.1147 9.42 16.054 9.42 15.998C9.42 15.7273 9.518 15.522 9.714 15.382C9.91 15.2327 10.0967 15.158 10.274 15.158C10.6287 15.158 10.8853 15.34 11.044 15.704L14.11 22.914L13.62 22.928L16.434 15.704C16.5927 15.3493 16.8493 15.172 17.204 15.172ZM21.1483 24.146C21.1483 24.3887 21.0596 24.594 20.8823 24.762C20.7049 24.9207 20.4996 25 20.2663 25C20.0049 25 19.7949 24.9207 19.6363 24.762C19.4776 24.594 19.3983 24.3887 19.3983 24.146V16.054C19.3983 15.8113 19.4823 15.6107 19.6503 15.452C19.8183 15.284 20.0329 15.2 20.2943 15.2C20.5183 15.2 20.7143 15.284 20.8823 15.452C21.0596 15.6107 21.1483 15.8113 21.1483 16.054V24.146ZM23.9678 15.2H28.6578C28.9004 15.2 29.1011 15.2793 29.2598 15.438C29.4278 15.5873 29.5118 15.7833 29.5118 16.026C29.5118 16.2593 29.4278 16.4507 29.2598 16.6C29.1011 16.74 28.9004 16.81 28.6578 16.81H24.7378L24.8638 16.572V19.302L24.7518 19.19H28.0278C28.2704 19.19 28.4711 19.2693 28.6298 19.428C28.7978 19.5773 28.8818 19.7733 28.8818 20.016C28.8818 20.2493 28.7978 20.4407 28.6298 20.59C28.4711 20.73 28.2704 20.8 28.0278 20.8H24.7938L24.8638 20.688V23.516L24.7518 23.39H28.6578C28.9004 23.39 29.1011 23.474 29.2598 23.642C29.4278 23.8007 29.5118 23.9873 29.5118 24.202C29.5118 24.4353 29.4278 24.6267 29.2598 24.776C29.1011 24.9253 28.9004 25 28.6578 25H23.9678C23.7251 25 23.5198 24.9207 23.3518 24.762C23.1931 24.594 23.1138 24.3887 23.1138 24.146V16.054C23.1138 15.8113 23.1931 15.6107 23.3518 15.452C23.5198 15.284 23.7251 15.2 23.9678 15.2Z" fill="white"/>
</svg>
